# 3ds Max Wavefront OBJ Exporter v0.97b - (c)2007 guruware
# File Created: 13.09.2015 12:39:08

mtllib 3d-model.mtl

#
# object Layer0_001
#

v  -211.7215 0.0000 -122.2375
v  -211.7215 5786.4375 -122.2375
v  -172.8699 5786.4375 -172.8699
v  -172.8699 0.0000 -172.8699
v  -122.2375 0.0000 -211.7215
v  -122.2375 5786.4375 -211.7215
v  -63.2748 0.0000 -236.1447
v  -63.2748 5786.4375 -236.1447
v  0.0000 0.0000 -244.4750
v  0.0000 5786.4375 -244.4750
v  63.2748 0.0000 -236.1447
v  63.2748 5786.4375 -236.1447
v  122.2375 0.0000 -211.7215
v  122.2375 5786.4375 -211.7215
v  172.8699 0.0000 -172.8699
v  172.8699 5786.4375 -172.8699
v  211.7215 5786.4375 -122.2375
v  211.7215 0.0000 -122.2375
v  236.1447 5786.4375 -63.2748
v  236.1447 0.0000 -63.2748
v  244.4750 5786.4375 0.0000
v  244.4750 0.0000 0.0000
v  236.1447 5786.4375 63.2748
v  236.1447 0.0000 63.2748
v  211.7215 5786.4375 122.2375
v  211.7215 0.0000 122.2375
v  172.8699 5786.4375 172.8699
v  172.8699 0.0000 172.8699
v  122.2375 0.0000 211.7215
v  122.2375 5786.4375 211.7215
v  63.2748 0.0000 236.1447
v  63.2748 5786.4375 236.1447
v  -0.0000 0.0000 244.4750
v  -0.0000 5786.4375 244.4750
v  -63.2748 0.0000 236.1447
v  -63.2748 5786.4375 236.1447
v  -122.2375 0.0000 211.7215
v  -122.2375 5786.4375 211.7215
v  -172.8699 0.0000 172.8699
v  -172.8699 5786.4375 172.8699
v  -211.7215 5786.4375 122.2375
v  -211.7215 0.0000 122.2375
v  -236.1447 5786.4375 63.2748
v  -236.1447 0.0000 63.2748
v  -244.4750 5786.4375 -0.0000
v  -244.4750 0.0000 -0.0000
v  -236.1447 5786.4375 -63.2748
v  -236.1447 0.0000 -63.2748
# 48 vertices

vn -0.8660 0.0000 -0.5000
vn -0.7071 0.0000 -0.7071
vn -0.5000 0.0000 -0.8660
vn -0.2588 0.0000 -0.9659
vn 0.0000 0.0000 -1.0000
vn 0.2588 0.0000 -0.9659
vn 0.5000 0.0000 -0.8660
vn 0.7071 0.0000 -0.7071
vn 0.8660 0.0000 -0.5000
vn 0.9659 0.0000 -0.2588
vn 1.0000 0.0000 0.0000
vn 0.9659 0.0000 0.2588
vn 0.8660 0.0000 0.5000
vn 0.7071 0.0000 0.7071
vn 0.5000 0.0000 0.8660
vn 0.2588 0.0000 0.9659
vn -0.0000 0.0000 1.0000
vn -0.2588 0.0000 0.9659
vn -0.5000 0.0000 0.8660
vn -0.7071 0.0000 0.7071
vn -0.8660 0.0000 0.5000
vn -0.9659 0.0000 0.2588
vn -1.0000 0.0000 -0.0000
vn -0.9659 0.0000 -0.2588
vn 0.0000 -1.0000 -0.0000
vn 0.0000 1.0000 -0.0000
# 26 vertex normals

vt 0.0833 0.0000 0.0000
vt 0.0833 0.9992 0.0000
vt 0.0625 0.9992 0.0000
vt 0.0625 0.0000 0.0000
vt 0.0417 0.0000 0.0000
vt 0.0417 0.9992 0.0000
vt 0.0208 0.0000 0.0000
vt 0.0208 0.9992 0.0000
vt 0.0000 0.0000 0.0000
vt -0.0000 0.9992 0.0000
vt 0.4792 0.0000 0.0000
vt 0.5000 0.0000 0.0000
vt 0.5000 0.9992 0.0000
vt 0.4792 0.9992 0.0000
vt 0.4583 0.0000 0.0000
vt 0.4583 0.9992 0.0000
vt 0.4375 0.0000 0.0000
vt 0.4375 0.9992 0.0000
vt 0.4167 0.9992 0.0000
vt 0.4167 0.0000 0.0000
vt 0.3958 0.9992 0.0000
vt 0.3958 0.0000 0.0000
vt 0.3750 0.9992 0.0000
vt 0.3750 0.0000 0.0000
vt 0.3542 0.9992 0.0000
vt 0.3542 0.0000 0.0000
vt 0.3333 0.9992 0.0000
vt 0.3333 0.0000 0.0000
vt 0.3125 0.9992 0.0000
vt 0.3125 0.0000 0.0000
vt 0.2917 0.0000 0.0000
vt 0.2917 0.9992 0.0000
vt 0.2708 0.0000 0.0000
vt 0.2708 0.9992 0.0000
vt 0.2500 0.0000 0.0000
vt 0.2500 0.9992 0.0000
vt 0.2292 0.0000 0.0000
vt 0.2292 0.9992 0.0000
vt 0.2083 0.0000 0.0000
vt 0.2083 0.9992 0.0000
vt 0.1875 0.0000 0.0000
vt 0.1875 0.9992 0.0000
vt 0.1667 0.9992 0.0000
vt 0.1667 0.0000 0.0000
vt 0.1458 0.9992 0.0000
vt 0.1458 0.0000 0.0000
vt 0.1250 0.9992 0.0000
vt 0.1250 0.0000 0.0000
vt 0.1042 0.9992 0.0000
vt 0.1042 0.0000 0.0000
vt 1.0330 -0.1384 0.0000
vt 1.0694 0.0000 0.0000
vt 1.0330 0.1384 0.0000
vt 0.9262 -0.2674 0.0000
vt 0.9262 0.2674 0.0000
vt 0.7562 -0.3781 0.0000
vt 0.7562 0.3781 0.0000
vt 0.5347 -0.4631 0.0000
vt 0.5347 0.4631 0.0000
vt 0.2768 -0.5165 0.0000
vt 0.2768 0.5165 0.0000
vt 0.0000 -0.5347 0.0000
vt 0.0000 0.5347 0.0000
vt -0.2768 -0.5165 0.0000
vt -0.2768 0.5165 0.0000
vt -0.5347 -0.4631 0.0000
vt -0.5347 0.4631 0.0000
vt -0.7562 -0.3781 0.0000
vt -0.7562 0.3781 0.0000
vt -0.9262 -0.2674 0.0000
vt -0.9262 0.2674 0.0000
vt -1.0330 -0.1384 0.0000
vt -1.0330 0.1384 0.0000
vt -1.0694 -0.0000 0.0000
vt -0.1107 0.0297 0.0000
vt -0.1146 0.0000 0.0000
vt -0.1107 -0.0297 0.0000
vt -0.0992 -0.0573 0.0000
vt -0.0992 0.0573 0.0000
vt -0.0810 -0.0810 0.0000
vt -0.0810 0.0810 0.0000
vt -0.0573 -0.0992 0.0000
vt -0.0573 0.0992 0.0000
vt -0.0297 -0.1107 0.0000
vt -0.0297 0.1107 0.0000
vt -0.0000 -0.1146 0.0000
vt 0.0000 0.1146 0.0000
vt 0.0297 -0.1107 0.0000
vt 0.0297 0.1107 0.0000
vt 0.0573 -0.0992 0.0000
vt 0.0573 0.0992 0.0000
vt 0.0810 -0.0810 0.0000
vt 0.0810 0.0810 0.0000
vt 0.0992 -0.0573 0.0000
vt 0.0992 0.0573 0.0000
vt 0.1107 -0.0297 0.0000
vt 0.1107 0.0297 0.0000
vt 0.1146 -0.0000 0.0000
# 98 texture coords

g Layer0_001
usemtl wire_087224198
s off
f 1/1/1 2/2/1 3/3/2 4/4/2 
f 5/5/3 4/4/2 3/3/2 6/6/3 
f 7/7/4 5/5/3 6/6/3 8/8/4 
f 9/9/5 7/7/4 8/8/4 10/10/5 
f 11/11/6 9/12/5 10/13/5 12/14/6 
f 13/15/7 11/11/6 12/14/6 14/16/7 
f 15/17/8 13/15/7 14/16/7 16/18/8 
f 17/19/9 18/20/9 15/17/8 16/18/8 
f 19/21/10 20/22/10 18/20/9 17/19/9 
f 21/23/11 22/24/11 20/22/10 19/21/10 
f 23/25/12 24/26/12 22/24/11 21/23/11 
f 25/27/13 26/28/13 24/26/12 23/25/12 
f 27/29/14 28/30/14 26/28/13 25/27/13 
f 29/31/15 28/30/14 27/29/14 30/32/15 
f 31/33/16 29/31/15 30/32/15 32/34/16 
f 33/35/17 31/33/16 32/34/16 34/36/17 
f 35/37/18 33/35/17 34/36/17 36/38/18 
f 37/39/19 35/37/18 36/38/18 38/40/19 
f 39/41/20 37/39/19 38/40/19 40/42/20 
f 39/41/20 40/42/20 41/43/21 42/44/21 
f 42/44/21 41/43/21 43/45/22 44/46/22 
f 44/46/22 43/45/22 45/47/23 46/48/23 
f 46/48/23 45/47/23 47/49/24 48/50/24 
f 48/50/24 47/49/24 2/2/1 1/1/1 
f 44/51/25 46/52/25 48/53/25 42/54/25 
f 42/54/25 48/53/25 1/55/25 39/56/25 
f 39/56/25 1/55/25 4/57/25 37/58/25 
f 37/58/25 4/57/25 5/59/25 35/60/25 
f 35/60/25 5/59/25 7/61/25 33/62/25 
f 33/62/25 7/61/25 9/63/25 31/64/25 
f 31/64/25 9/63/25 11/65/25 29/66/25 
f 29/66/25 11/65/25 13/67/25 28/68/25 
f 28/68/25 13/67/25 15/69/25 26/70/25 
f 26/70/25 15/69/25 18/71/25 24/72/25 
f 24/72/25 18/71/25 20/73/25 22/74/25 
f 47/75/26 45/76/26 43/77/26 41/78/26 
f 2/79/26 47/75/26 41/78/26 40/80/26 
f 3/81/26 2/79/26 40/80/26 38/82/26 
f 6/83/26 3/81/26 38/82/26 36/84/26 
f 8/85/26 6/83/26 36/84/26 34/86/26 
f 10/87/26 8/85/26 34/86/26 32/88/26 
f 12/89/26 10/87/26 32/88/26 30/90/26 
f 14/91/26 12/89/26 30/90/26 27/92/26 
f 16/93/26 14/91/26 27/92/26 25/94/26 
f 17/95/26 16/93/26 25/94/26 23/96/26 
f 19/97/26 17/95/26 23/96/26 21/98/26 
# 46 polygons

